<?xml version="1.0" encoding="UTF-8" standalone="no"?>
<!-- Created with Inkscape (http://www.inkscape.org/) -->

<svg
   width="29mm"
   height="13mm"
   viewBox="0 0 29 13"
   version="1.1"
   id="svg1274"
   xmlns="http://www.w3.org/2000/svg"
   xmlns:svg="http://www.w3.org/2000/svg">
  <defs
     id="defs1271" />
  <g
     id="layer1">
    <path
       id="path53650-9-7-8-7-5"
       style="fill:#000000;fill-opacity:1;stroke-width:0.033443"
       d="m 15.085048,2.2627646 v 1.7268189 6.9073135 h 1.726792 1.726873 1.726871 V 9.1700919 H 18.538713 16.81184 V 3.9895835 h 1.726873 1.726871 V 2.2627646 H 18.538713 16.81184 Z m 3.453665,3.453624 v 1.7268716 h 1.726871 V 5.7163886 Z" />
    <path
       id="path53647-5-5-3-6-1"
       style="fill:#000000;fill-opacity:1;stroke-width:0.033443"
       d="m 22.001709,2.2627517 v 1.7268184 6.9073269 h 1.726793 1.726871 1.726872 V 9.1700919 H 25.455373 23.728502 V 3.9895701 h 1.726871 1.726872 V 2.2627517 h -1.726872 -1.726871 z m 3.453664,3.4536369 v 1.7268716 h 1.726872 V 5.7163886 Z" />
    <g
       aria-label="JS"
       transform="matrix(0.05545656,0,0,0.05597005,-218.22149,96.848185)"
       id="text9866-2-7-20-0-9-1-4-1"
       style="font-size:241.925px;fill:#000000;stroke:#0024ee;stroke-width:3.31154">
      <g
         id="path52502-6-4-6-8-3-0"
         style="fill:#000000">
        <path
           id="path53644-8-2-9-0-8"
           style="color:#000000;-inkscape-font-specification:'Ubuntu Mono Bold';fill:#000000;stroke:none;stroke-width:3.31155;-inkscape-stroke:none"
           d="m 4057.5092,-1689.778 -33.3113,-0.027 v 99.6732 c 0,10.8886 -2.3949,18.0118 -6.6855,21.7303 -4.3348,3.7352 -10.0924,5.6444 -17.5448,5.6444 -4.9004,0 -9.717,-1.1428 -14.514,-3.4628 h -0.011 c -4.7842,-2.393 -9.1636,-4.8607 -13.1345,-7.4021 l -1.5765,-1.0103 -12.7499,26.5883 1.0351,0.822 c 4.8358,3.8352 10.7133,7.0544 17.6154,9.6838 7.0314,2.6785 15.6913,3.9804 25.9924,3.9804 9.8334,0 18.2685,-1.3898 25.2967,-4.2345 l 0.016,-0.01 0.016,-0.01 c 6.955,-2.9809 12.6568,-6.9906 17.029,-12.0274 l 0.011,-0.01 c 4.5181,-5.0224 7.7113,-10.908 9.5488,-17.5823 1.98,-6.6083 2.9669,-13.6189 2.9669,-21.0153 z" />
      </g>
      <g
         id="path52504-2-7-1-6-3-5"
         transform="translate(95.989089,-84.950886)"
         style="fill:#000000">
        <path
           id="path53638-1-7-4-0-0"
           style="color:#000000;-inkscape-font-specification:'Ubuntu Mono Bold';fill:#000000;stroke:none;stroke-width:12.5161;-inkscape-stroke:none"
           d="m 14820.902,-7165.5098 c -61.098,0 -110.108,15.3477 -146.047,46.5274 l -0.04,0.039 h -0.04 c -35.354,31.2211 -53.095,75.0334 -53.095,129.6602 0,27.7074 4.995,51.4357 15.298,70.9336 l 0.04,0.039 0.04,0.045 c 10.052,18.3884 22.693,34.038 37.871,46.8027 l 0.05,0.037 0.05,0.047 c 15.605,12.5992 32.778,22.9927 51.471,31.168 18.277,7.9934 35.956,15.0668 53.053,21.2324 12.58,4.837 25.165,10.284 37.761,16.3379 l 0.116,0.053 0.109,0.053 c 12.38,5.3549 23.522,11.5723 33.449,18.6446 l 0.102,0.076 0.101,0.072 c 9.746,6.3641 17.645,13.7908 23.844,22.3223 5.933,8.165 8.811,17.0897 8.811,27.5117 0,8.4874 -1.396,16.9808 -4.233,25.5703 l -0.05,0.127 -0.04,0.1328 c -2.09,7.3855 -6.277,14.3394 -12.873,21.0312 -6.408,5.904 -15.549,11.0389 -27.597,15.1055 -11.28,3.4051 -26.177,5.2285 -44.551,5.2285 -32.227,0 -59.425,-4.2332 -81.584,-12.4726 -22.161,-8.4662 -41.245,-17.504 -57.227,-27.0625 l -6.488,-3.877 -37.041,103.8457 4.35,2.6699 c 14.574,8.9537 35.758,18.5092 63.875,28.9961 l 0.06,0.037 0.06,0.039 c 28.93,10.1558 66.843,15.0469 113.996,15.0469 70.627,0 124.053,-14.4999 159.64,-44.6446 36.005,-30.6002 54.096,-74.1656 54.096,-128.8164 0,-31.9205 -5.252,-58.6401 -16.158,-80.0176 -10.645,-21.4715 -24.527,-39.3432 -41.582,-53.3886 -16.251,-14.4867 -34.421,-25.8642 -54.418,-34.0684 0,0 -0.04,9e-4 -0.04,-0.037 -18.835,-8.58 -37.086,-16.2605 -54.742,-23.0195 h -0.04 -0.04 c -11.438,-4.253 -23.183,-8.8126 -35.232,-13.6758 -11.18,-4.7508 -21.427,-10.0803 -30.781,-15.9668 -8.553,-6.3562 -15.604,-13.2064 -21.213,-20.541 -5.304,-7.5192 -7.906,-15.8372 -7.906,-25.668 0,-20.2937 6.46,-34.1264 19.728,-43.8281 13.269,-9.7017 34.264,-15.1055 63.244,-15.1055 23.752,0 44.321,3.0022 61.737,8.8614 h 0.04 0.04 c 18.467,6.0121 35.07,13.2006 49.834,21.5449 l 6.312,3.5664 37.239,-99.1895 -4.733,-2.6328 c -18.112,-10.0852 -40.336,-19.0958 -66.734,-27.1504 -26.237,-8.1912 -56.862,-12.2129 -91.906,-12.2129 z"
           transform="matrix(0.26580544,0,0,0.26336684,98.529211,278.95254)" />
      </g>
    </g>
  </g>
</svg>
